<?xml version="1.0" encoding="UTF-8"?>
<svg version="1.1" xmlns="http://www.w3.org/2000/svg" width="512" height="512">
<path d="M0 0 C0.87207092 0.00215515 1.74414185 0.0043103 2.64263916 0.00653076 C63.75930217 0.24784499 121.73061785 22.82219778 166.90625 64.06640625 C168.55837465 65.56952599 170.22530887 67.05652026 171.90625 68.52734375 C177.86691701 73.7613245 183.24550704 79.26254338 188.375 85.3125 C188.81537598 85.82989746 189.25575195 86.34729492 189.70947266 86.88037109 C224.69261224 128.31257641 248.12349442 182.4400713 248.61328125 237.18359375 C248.6230751 238.09539398 248.63286896 239.00719421 248.64295959 239.94662476 C248.81459256 260.06944221 248.66644179 279.55824413 244.375 299.3125 C244.15537598 300.34020508 243.93575195 301.36791016 243.70947266 302.42675781 C234.43823502 344.66895733 215.22491568 384.71380138 185.375 416.3125 C184.24470833 417.62044571 183.11956689 418.93286248 182 420.25 C174.20067261 429.16351702 165.69063222 437.01312791 156.375 444.3125 C155.41335938 445.09109375 154.45171875 445.8696875 153.4609375 446.671875 C134.66426473 461.61404019 113.46188825 473.45947959 91.25 482.5 C89.86506348 483.08044067 89.86506348 483.08044067 88.45214844 483.67260742 C82.07759679 486.1609797 76.21681499 487.17450531 69.375 486.3125 C65.88452096 484.65911519 64.04917607 483.58386061 62.23861694 480.16950989 C61.13492946 476.51830077 61.09864819 473.06452512 61.11962891 469.2878418 C61.11419823 468.09634773 61.11419823 468.09634773 61.10865784 466.88078308 C61.10177848 465.15934584 61.09925566 463.43788685 61.10060501 461.71643639 C61.10157483 458.97689162 61.08856952 456.23773443 61.07162476 453.49824524 C61.02552334 445.71004327 61.00080301 437.92187868 60.99414062 430.13354492 C60.98907586 425.3618953 60.96456836 420.59064524 60.92881393 415.81913185 C60.91912041 414.01538322 60.9166258 412.21157884 60.92198563 410.40781212 C60.97535567 391.54335177 58.17682856 374.9969504 45.375 360.3125 C45.375 359.6525 45.375 358.9925 45.375 358.3125 C46.023479 358.21227539 46.67195801 358.11205078 47.34008789 358.00878906 C75.4377185 353.62063321 102.56126379 347.71074583 124.375 328.3125 C125.12136719 327.66023438 125.86773437 327.00796875 126.63671875 326.3359375 C150.04357499 304.52221807 156.35986157 271.82051186 157.5625 241.17578125 C157.89989987 220.99505131 154.12285346 195.52329891 139.49609375 180.15625 C132.42676209 172.65390843 132.42676209 172.65390843 132.32910156 168.23632812 C132.88216759 164.19236621 134.01991049 160.33381147 135.1171875 156.41015625 C138.87399827 142.58263438 136.5715293 127.91408959 132.91503906 114.32177734 C132.02146588 110.99713571 131.20553964 107.65336442 130.375 104.3125 C109.0517291 103.00699362 84.98556412 114.3402752 68.3125 127 C65.23080275 129.16306665 63.47093732 129.55777379 59.74609375 129.078125 C58.86477783 128.96557373 57.98346191 128.85302246 57.07543945 128.73706055 C52.85555583 128.07361442 48.68201214 127.24209536 44.5 126.375 C12.69398275 120.13620332 -20.07627508 120.56797727 -51.66577148 128.04199219 C-62.01419569 130.47468396 -62.01419569 130.47468396 -67.48046875 127.22265625 C-68.93066702 126.28291836 -70.3743539 125.33308044 -71.8125 124.375 C-89.67700992 113.00012964 -108.05918173 104.3125 -129.625 104.3125 C-130.69484325 107.96210711 -131.67442105 111.63007702 -132.625 115.3125 C-132.91117187 116.40046875 -133.19734375 117.4884375 -133.4921875 118.609375 C-136.86648397 133.07064557 -137.18225307 147.75374908 -133.125 162.0625 C-131.1697942 169.26379804 -131.1697942 169.26379804 -132.859375 173.15625 C-134.875 175.5625 -134.875 175.5625 -137.19140625 177.83984375 C-139.96737667 180.66037228 -141.89542697 183.69730873 -143.8125 187.125 C-144.14564209 187.72014404 -144.47878418 188.31528809 -144.82202148 188.9284668 C-160.72363984 218.15188817 -159.24353283 253.58673911 -150.37988281 284.83740234 C-145.46269284 300.95980595 -137.48310778 314.24958898 -125.625 326.3125 C-124.95082031 326.99957031 -124.27664062 327.68664062 -123.58203125 328.39453125 C-103.13113549 347.84782234 -72.9189576 355.4805688 -45.625 358.3125 C-45.625 362.02290294 -46.58131487 362.85278946 -48.8125 365.75 C-53.8878868 372.80828083 -57.36730678 380.12694064 -58.3125 388.8125 C-58.72265625 391.25 -58.72265625 391.25 -59.625 393.3125 C-62.74398469 395.49046275 -65.96016188 396.40369917 -69.625 397.3125 C-71.43677734 397.84230469 -71.43677734 397.84230469 -73.28515625 398.3828125 C-84.86619568 401.23579584 -100.09924076 401.16399116 -110.625 395.3125 C-111.553125 394.81492187 -112.48125 394.31734375 -113.4375 393.8046875 C-122.10396013 388.74140237 -127.83251328 382.3602645 -133.0625 373.875 C-140.22750251 362.31071829 -149.85039777 352.65955798 -163.22265625 348.7421875 C-169.14969366 347.68206699 -175.50588944 346.89975963 -180.625 350.3125 C-179.31577345 354.3504303 -177.94028489 356.23015365 -174.5 358.6875 C-159.89257754 369.52602019 -150.39547028 381.8151662 -143.5625 398.625 C-137.66384006 412.81666839 -126.79535874 422.56664254 -112.73193359 428.53857422 C-103.70276411 431.85519847 -95.18800415 432.74421979 -85.625 432.5625 C-84.53960937 432.55734375 -83.45421875 432.5521875 -82.3359375 432.546875 C-75.06186982 432.47743283 -67.86420554 432.01359423 -60.625 431.3125 C-60.54877898 437.75366617 -60.49632842 444.1947155 -60.46020508 450.63623047 C-60.44514194 452.82637885 -60.42468741 455.01649719 -60.39868164 457.20654297 C-60.36219011 460.35912503 -60.34524861 463.51130737 -60.33203125 466.6640625 C-60.31654739 467.63928864 -60.30106354 468.61451477 -60.28511047 469.61929321 C-60.28379754 474.95288396 -60.60870716 478.70991487 -63.625 483.3125 C-67.46972619 486.9169308 -71.53929776 486.67702275 -76.54394531 486.61621094 C-81.91408302 486.08685663 -86.5701857 484.1038657 -91.5 482 C-92.58571289 481.54850586 -93.67142578 481.09701172 -94.79003906 480.63183594 C-125.36144655 467.67270294 -151.69724013 449.18267932 -175.625 426.3125 C-176.37265625 425.60609375 -177.1203125 424.8996875 -177.890625 424.171875 C-182.77721037 419.43919783 -187.09999641 414.32155732 -191.30761719 408.98046875 C-192.23249076 407.809465 -193.16337139 406.6431927 -194.09863281 405.48046875 C-217.59470155 376.22397892 -233.72462456 341.97313526 -242.3125 305.5 C-242.50287842 304.70875732 -242.69325684 303.91751465 -242.8894043 303.10229492 C-246.83777362 285.4921889 -248.15327194 267.87657824 -248 249.875 C-247.99534729 248.89325806 -247.99069458 247.91151611 -247.98590088 246.90002441 C-247.90624052 232.53606502 -247.57042737 218.42009956 -244.625 204.3125 C-244.42100586 203.32024414 -244.21701172 202.32798828 -244.00683594 201.30566406 C-236.56739391 166.12262599 -223.09713232 132.34212795 -201.625 103.3125 C-200.99295654 102.4472168 -200.99295654 102.4472168 -200.34814453 101.56445312 C-195.02524009 94.30651392 -189.29689075 87.57146394 -183.140625 81.015625 C-181.08458509 78.80633988 -179.12399728 76.56251617 -177.1875 74.25 C-166.01484573 61.43586572 -151.75633738 50.64534587 -137.625 41.3125 C-136.29082031 40.43078125 -136.29082031 40.43078125 -134.9296875 39.53125 C-108.52362161 22.70858662 -80.06725872 11.11088352 -49.5 4.5625 C-48.12569824 4.26436401 -48.12569824 4.26436401 -46.72363281 3.96020508 C-31.24268857 0.8042244 -15.76315519 -0.07070714 0 0 Z " fill="#3E77BF" transform="translate(255.625,12.6875)"/>
<path d="M0 0 C5.91045989 -0.21964547 10.83295872 0.4171492 16.5 2.0625 C17.28044678 2.28655518 18.06089355 2.51061035 18.86499023 2.74145508 C38.07322885 8.47029621 55.39894619 18.51915695 71 31 C71.89847656 31.70640625 72.79695312 32.4128125 73.72265625 33.140625 C80.02236129 38.18038903 86.02219757 43.50581903 91.85546875 49.07421875 C93.78617696 50.91083213 95.67424646 52.51626402 97.80078125 54.14453125 C107.52146475 62.09513581 109.30428157 74.2986818 112 86 C112.21382324 86.91797363 112.42764648 87.83594727 112.64794922 88.78173828 C116.89289469 107.43524154 118.41474729 125.77803205 118.375 144.875 C118.37445618 145.86245209 118.37391235 146.84990417 118.37335205 147.86727905 C118.33287777 163.89978881 117.41417869 179.28393936 114 195 C113.78037598 196.02770508 113.56075195 197.05541016 113.33447266 198.11425781 C104.06323502 240.35645733 84.84991568 280.40130138 55 312 C53.86970833 313.30794571 52.74456689 314.62036248 51.625 315.9375 C43.82567261 324.85101702 35.31563222 332.70062791 26 340 C25.03835938 340.77859375 24.07671875 341.5571875 23.0859375 342.359375 C4.28926473 357.30154019 -16.91311175 369.14697959 -39.125 378.1875 C-40.50993652 378.76794067 -40.50993652 378.76794067 -41.92285156 379.36010742 C-48.29740321 381.8484797 -54.15818501 382.86200531 -61 382 C-64.49047904 380.34661519 -66.32582393 379.27136061 -68.13638306 375.85700989 C-69.24007054 372.20580077 -69.27635181 368.75202512 -69.25537109 364.9753418 C-69.25899155 364.18101242 -69.262612 363.38668304 -69.26634216 362.56828308 C-69.27322152 360.84684584 -69.27574434 359.12538685 -69.27439499 357.40393639 C-69.27342517 354.66439162 -69.28643048 351.92523443 -69.30337524 349.18574524 C-69.34947666 341.39754327 -69.37419699 333.60937868 -69.38085938 325.82104492 C-69.38592414 321.0493953 -69.41043164 316.27814524 -69.44618607 311.50663185 C-69.45587959 309.70288322 -69.4583742 307.89907884 -69.45301437 306.09531212 C-69.39964433 287.23085177 -72.19817144 270.6844504 -85 256 C-85 255.34 -85 254.68 -85 254 C-84.351521 253.89977539 -83.70304199 253.79955078 -83.03491211 253.69628906 C-54.9372815 249.30813321 -27.81373621 243.39824583 -6 224 C-5.25363281 223.34773437 -4.50726563 222.69546875 -3.73828125 222.0234375 C19.66857499 200.20971807 25.98486157 167.50801186 27.1875 136.86328125 C27.52489987 116.68255131 23.74785346 91.21079891 9.12109375 75.84375 C2.05176209 68.34140843 2.05176209 68.34140843 1.95410156 63.92382812 C2.50716759 59.87986621 3.64491049 56.02131147 4.7421875 52.09765625 C8.49899827 38.27013438 6.1965293 23.60158959 2.54003906 10.00927734 C1.64646588 6.68463571 0.83053964 3.34086442 0 0 Z " fill="#114C82" transform="translate(386,117)"/>
<path d="M0 0 C0.87207092 0.00215515 1.74414185 0.0043103 2.64263916 0.00653076 C63.75930217 0.24784499 121.73061785 22.82219778 166.90625 64.06640625 C168.55837465 65.56952599 170.22530887 67.05652026 171.90625 68.52734375 C182.38916448 77.7322486 190.88974088 88.30545358 199.375 99.3125 C199.045 99.9725 198.715 100.6325 198.375 101.3125 C197.77196045 100.65616577 197.77196045 100.65616577 197.15673828 99.98657227 C166.62939079 66.85068253 130.40023769 43.23578647 87.375 29.3125 C86.04422653 28.86992486 84.71349089 28.42723594 83.3828125 27.984375 C24.51336007 9.06709292 -44.22014916 16.40771817 -98.88378906 44.47216797 C-157.23077997 75.05072404 -202.37149502 127.16019232 -222.52734375 190.15625 C-226.50349434 203.03723472 -229.57830385 215.98896167 -231.625 229.3125 C-231.80071533 230.42842529 -231.80071533 230.42842529 -231.97998047 231.56689453 C-234.35347677 247.36316488 -233.91205577 263.38655563 -233.625 279.3125 C-233.60397217 280.64039551 -233.60397217 280.64039551 -233.58251953 281.99511719 C-232.69656044 324.6124895 -216.54967426 370.81789351 -191.625 405.3125 C-194.625 405.3125 -194.625 405.3125 -195.984375 403.96166992 C-196.44328125 403.32849854 -196.9021875 402.69532715 -197.375 402.04296875 C-198.15580933 400.97151611 -198.15580933 400.97151611 -198.95239258 399.87841797 C-199.50435303 399.09354004 -200.05631348 398.30866211 -200.625 397.5 C-201.19951904 396.69191895 -201.77403809 395.88383789 -202.3659668 395.05126953 C-208.36993853 386.46707171 -213.64473112 377.52179045 -218.625 368.3125 C-218.99463867 367.62978027 -219.36427734 366.94706055 -219.74511719 366.24365234 C-238.92405311 330.36932013 -248.34543343 290.44568053 -248 249.875 C-247.99534729 248.89325806 -247.99069458 247.91151611 -247.98590088 246.90002441 C-247.90624052 232.53606502 -247.57042737 218.42009956 -244.625 204.3125 C-244.42100586 203.32024414 -244.21701172 202.32798828 -244.00683594 201.30566406 C-236.56739391 166.12262599 -223.09713232 132.34212795 -201.625 103.3125 C-200.99295654 102.4472168 -200.99295654 102.4472168 -200.34814453 101.56445312 C-195.02524009 94.30651392 -189.29689075 87.57146394 -183.140625 81.015625 C-181.08458509 78.80633988 -179.12399728 76.56251617 -177.1875 74.25 C-166.01484573 61.43586572 -151.75633738 50.64534587 -137.625 41.3125 C-136.29082031 40.43078125 -136.29082031 40.43078125 -134.9296875 39.53125 C-108.52362161 22.70858662 -80.06725872 11.11088352 -49.5 4.5625 C-48.12569824 4.26436401 -48.12569824 4.26436401 -46.72363281 3.96020508 C-31.24268857 0.8042244 -15.76315519 -0.07070714 0 0 Z " fill="#6AA6E8" transform="translate(255.625,12.6875)"/>
<path d="M0 0 C11.48086177 10.46784455 17.38751997 25.20525224 21 40 C21.17877686 40.64976807 21.35755371 41.29953613 21.54174805 41.96899414 C23.25398787 48.6555004 23.34480445 55.18640369 23.3125 62.0625 C23.30831055 63.28533691 23.30412109 64.50817383 23.29980469 65.76806641 C23.09794465 82.36998083 21.70403479 99.29562216 16 115 C15.63648438 116.00619385 15.63648438 116.00619385 15.265625 117.03271484 C5.85637888 142.61410274 -11.48661196 161.16426489 -36 173 C-48.94806368 178.8928256 -62.38921245 181.85932099 -76.31347656 184.47900391 C-80.2284148 185.23822584 -84.11192414 186.11416004 -88 187 C-87.59080322 187.51054932 -87.18160645 188.02109863 -86.76000977 188.54711914 C-71.62570863 207.65835419 -72.41963443 229.71380906 -72.66705322 252.83251953 C-72.69445754 255.82130814 -72.70289816 258.81001824 -72.71061993 261.798913 C-72.72062396 265.39853651 -72.74041324 268.99808437 -72.76171875 272.59765625 C-72.7651145 273.27032091 -72.76851025 273.94298557 -72.7720089 274.63603401 C-72.8138803 281.50248841 -72.93734054 288.20956862 -74 295 C-78.43643516 295.43494462 -80.32863378 295.54001196 -83.875 292.6875 C-87.31957006 288.33113198 -87.14559493 284.51750376 -87.1418457 279.20239258 C-87.14532013 278.40835526 -87.14879456 277.61431793 -87.15237427 276.79621887 C-87.15972969 275.06928521 -87.16507622 273.3423421 -87.16866493 271.6153965 C-87.17585147 268.86768166 -87.19154007 266.12014325 -87.21000671 263.3724823 C-87.26233238 255.55865083 -87.31031242 247.74491059 -87.32592773 239.9309082 C-87.33610985 235.14857139 -87.36570048 230.36667164 -87.40724754 225.5845089 C-87.41943054 223.7751874 -87.42470246 221.96580375 -87.42244911 220.15644264 C-87.40474242 201.27522265 -90.18515895 184.6993765 -103 170 C-103 169.34 -103 168.68 -103 168 C-102.351521 167.89977539 -101.70304199 167.79955078 -101.03491211 167.69628906 C-72.9372815 163.30813321 -45.81373621 157.39824583 -24 138 C-23.25363281 137.34773437 -22.50726563 136.69546875 -21.73828125 136.0234375 C1.66857499 114.20971807 7.98486157 81.50801186 9.1875 50.86328125 C9.43434627 36.0987888 7.75998978 19.15025049 0.84375 5.76171875 C0 4 0 4 0 0 Z " fill="#093F68" transform="translate(404,203)"/>
<path d="M0 0 C0.87140625 0.53109375 1.7428125 1.0621875 2.640625 1.609375 C13.29834807 7.97751881 24.12100118 13.11842398 36.7890625 13.1328125 C38.45001953 13.13474609 38.45001953 13.13474609 40.14453125 13.13671875 C41.29308594 13.13285156 42.44164062 13.12898438 43.625 13.125 C45.31302734 13.13080078 45.31302734 13.13080078 47.03515625 13.13671875 C54.08820467 13.12856494 60.98568396 12.7402042 68 12 C68 18.27 68 24.54 68 31 C59.16336354 35.41831823 43.5044317 32.10798585 34.52734375 29.3203125 C19.71539969 23.77608538 7.97407847 15.96783944 0 2 C0 1.34 0 0.68 0 0 Z " fill="#134E85" transform="translate(126,432)"/>
<path d="M0 0 C0.845625 0.78375 1.69125 1.5675 2.5625 2.375 C25.40186846 21.74278445 52.82924238 29.11964251 82 33 C82 36.79330832 80.82289319 38.01684801 78.625 41.0625 C77.99851562 41.94035156 77.37203125 42.81820312 76.7265625 43.72265625 C75 46 75 46 73 48 C45.22064239 40.70265125 18.59549348 29.93579276 2 5 C1.28510807 3.35344246 0.60336386 1.69061358 0 0 Z " fill="#134E86" transform="translate(128,338)"/>
<path d="M0 0 C2.31 0 4.62 0 7 0 C9.44949729 4.49307788 10.94578262 8.92228698 12.125 13.875 C12.29386719 14.54402344 12.46273438 15.21304688 12.63671875 15.90234375 C16.42696641 31.39162354 17.36621439 51.26757122 10 66 C6.27926941 64.75975647 5.70069513 63.46919802 3.5625 60.25 C1.7049645 57.47408566 0.0338779 55.03393464 -2.33203125 52.6640625 C-4 50 -4 50 -3.515625 46.4453125 C-3.10611686 45.001643 -2.6831597 43.56175022 -2.25 42.125 C0.16469396 32.86206015 0.35476985 23.81317117 0.25 14.3125 C0.24254761 13.60426086 0.23509521 12.89602173 0.22741699 12.1663208 C0.178733 8.11014454 0.10117533 4.05518499 0 0 Z " fill="#093F68" transform="translate(392,133)"/>
<path d="M0 0 C0.66 0.33 1.32 0.66 2 1 C-7.24 10.24 -16.48 19.48 -26 29 C-26 26 -26 26 -24.71484375 24.45703125 C-24.12832031 23.91433594 -23.54179688 23.37164062 -22.9375 22.8125 C-20.40021413 20.39146428 -18.05780956 17.94326541 -15.8125 15.25 C-11.02755908 9.67488534 -5.46956309 4.88578378 0 0 Z " fill="#5995DC" transform="translate(94,72)"/>
<path d="M0 0 C1.734375 0.12109375 1.734375 0.12109375 4 1 C6.140625 3.72265625 6.140625 3.72265625 8.25 7.0625 C8.95640625 8.16722656 9.6628125 9.27195312 10.390625 10.41015625 C10.92171875 11.26480469 11.4528125 12.11945313 12 13 C11.01 13 10.02 13 9 13 C7.29928977 11.05255461 5.80452995 9.15895676 4.3125 7.0625 C3.89677734 6.49853516 3.48105469 5.93457031 3.05273438 5.35351562 C0 1.16791102 0 1.16791102 0 0 Z " fill="#5694D6" transform="translate(52,405)"/>
<path d="M0 0 C2.93200474 2.85276137 5.64315404 5.65079784 8 9 C7.67 9.66 7.34 10.32 7 11 C5.82439821 9.73742767 4.65977135 8.46462916 3.5 7.1875 C2.8503125 6.47980469 2.200625 5.77210937 1.53125 5.04296875 C0 3 0 3 0 0 Z " fill="#5891D5" transform="translate(447,103)"/>
</svg>
